<svg xmlns="http://www.w3.org/2000/svg" width="1134.517" height="753.454" viewBox="0 0 1134.517 753.454"><g transform="translate(199.818 -346.063)"><path d="M-190.349-52.937h96.372c16.9,0,69.153,135.471,69.153,135.471S.205,163.585.205,174.852c0,0-16.607-9.81,0,24.093,4.83,9.858-60.147,54.114-56.947,96.372,13.911,183.726,66.836-10.93,194.934,74.469C552.154,770.606,175.427,223.038,497,488.1s337.7,41.572,337.7,41.572c0,28.167-390.176,170.841-418.342,170.841H41.82c-28.167,0-306.638-11.258-306.638-39.425L-227.583,96C-227.583,67.835-218.515-52.937-190.349-52.937Z" transform="translate(100 399)" fill="#6c63ff"/><path d="M-194.192-52.937h91.4c16.028,0,65.584,129.248,65.584,129.248s23.738,77.328,23.738,88.077c0,0-15.75-9.359,0,22.986C-8.891,196.78-70.515,239-67.48,279.319c13.193,175.286,63.387-10.428,184.874,71.048,392.6,382.408,35.313-140.007,340.291,112.883s357.257-35.8,357.257-35.8c0,26.873-407.026,238.452-433.739,238.452H26c-26.713,0-290.814-10.741-290.814-37.614L-229.5,89.16C-229.5,62.287-220.9-52.937-194.192-52.937Z" transform="translate(65 413.611)" fill="#42405e" opacity="0.75"/></g></svg>